<svg id="Layer_1" data-name="Layer 1" xmlns="http://www.w3.org/2000/svg" xmlns:xlink="http://www.w3.org/1999/xlink" viewBox="0 0 200 200"><defs><style>.cls-1,.cls-4,.cls-5{fill:none;}.cls-2{clip-path:url(#clip-path);}.cls-3{clip-path:url(#clip-path-2);}.cls-4{stroke:#e5f7dc;stroke-width:8px;}.cls-4,.cls-5{stroke-linecap:round;stroke-miterlimit:10;}.cls-5{stroke:#b2e086;stroke-width:5px;}</style><clipPath id="clip-path"><rect class="cls-1" width="200" height="200"/></clipPath><clipPath id="clip-path-2"><rect class="cls-1" width="396.51" height="200"/></clipPath></defs><g class="cls-2"><g class="cls-3"><g id="_Grid_Repeat_" data-name="&lt;Grid Repeat&gt;"><line class="cls-4" x1="-203.5" y1="210" x2="16.5" y2="-10"/></g><g id="_Grid_Repeat_2" data-name="&lt;Grid Repeat&gt;"><line class="cls-5" x1="-183.5" y1="210" x2="36.5" y2="-10"/><line class="cls-4" x1="-163.5" y1="210" x2="56.5" y2="-10"/></g><g id="_Grid_Repeat_3" data-name="&lt;Grid Repeat&gt;"><line class="cls-5" x1="-143.5" y1="210" x2="76.5" y2="-10"/><line class="cls-4" x1="-123.5" y1="210" x2="96.5" y2="-10"/></g><g id="_Grid_Repeat_4" data-name="&lt;Grid Repeat&gt;"><line class="cls-5" x1="-103.5" y1="210" x2="116.5" y2="-10"/><line class="cls-4" x1="-83.5" y1="210" x2="136.5" y2="-10"/></g><g id="_Grid_Repeat_5" data-name="&lt;Grid Repeat&gt;"><line class="cls-5" x1="-63.5" y1="210" x2="156.5" y2="-10"/><line class="cls-4" x1="-43.5" y1="210" x2="176.5" y2="-10"/></g><g id="_Grid_Repeat_6" data-name="&lt;Grid Repeat&gt;"><line class="cls-5" x1="-23.5" y1="210" x2="196.5" y2="-10"/><line class="cls-4" x1="-3.5" y1="210" x2="216.5" y2="-10"/></g><g id="_Grid_Repeat_7" data-name="&lt;Grid Repeat&gt;"><line class="cls-5" x1="16.5" y1="210" x2="236.5" y2="-10"/><line class="cls-4" x1="36.5" y1="210" x2="256.5" y2="-10"/></g><g id="_Grid_Repeat_8" data-name="&lt;Grid Repeat&gt;"><line class="cls-5" x1="56.5" y1="210" x2="276.5" y2="-10"/><line class="cls-4" x1="76.5" y1="210" x2="296.5" y2="-10"/></g><g id="_Grid_Repeat_9" data-name="&lt;Grid Repeat&gt;"><line class="cls-5" x1="96.5" y1="210" x2="316.5" y2="-10"/><line class="cls-4" x1="116.5" y1="210" x2="336.5" y2="-10"/></g><g id="_Grid_Repeat_10" data-name="&lt;Grid Repeat&gt;"><line class="cls-5" x1="136.5" y1="210" x2="356.5" y2="-10"/><line class="cls-4" x1="156.5" y1="210" x2="376.5" y2="-10"/></g><g id="_Grid_Repeat_11" data-name="&lt;Grid Repeat&gt;"><line class="cls-5" x1="176.5" y1="210" x2="396.5" y2="-10"/><line class="cls-4" x1="196.5" y1="210" x2="416.5" y2="-10"/></g></g></g></svg>