<svg id="Layer_1" data-name="Layer 1" xmlns="http://www.w3.org/2000/svg" xmlns:xlink="http://www.w3.org/1999/xlink" viewBox="0 0 200 200"><defs><style>.cls-1,.cls-11,.cls-12,.cls-14,.cls-15,.cls-9{fill:none;}.cls-2{clip-path:url(#clip-path);}.cls-3{clip-path:url(#clip-path-2);}.cls-4,.cls-5{fill:#bba3bf;stroke:#edcef2;}.cls-11,.cls-12,.cls-14,.cls-15,.cls-4,.cls-5,.cls-8,.cls-9{stroke-linecap:round;stroke-miterlimit:10;}.cls-11,.cls-14,.cls-4{stroke-width:8px;}.cls-12,.cls-15,.cls-5{stroke-width:5px;}.cls-6{clip-path:url(#clip-path-3);}.cls-7{clip-path:url(#clip-path-4);}.cls-8{fill:#f2f1e9;}.cls-12,.cls-8{stroke:#d9d8d0;}.cls-8,.cls-9{stroke-width:2px;}.cls-11,.cls-9{stroke:#f2f1e9;}.cls-10{clip-path:url(#clip-path-5);}.cls-13{clip-path:url(#clip-path-7);}.cls-14{stroke:#f2dbff;}.cls-15{stroke:#e6c0f4;}</style><clipPath id="clip-path"><line class="cls-1" x1="200" y1="200" y2="200"/></clipPath><clipPath id="clip-path-2"><rect class="cls-1" width="396.51" height="200"/></clipPath><clipPath id="clip-path-3"><line class="cls-1" x1="-20" y1="200" x2="-220" y2="200"/></clipPath><clipPath id="clip-path-4"><rect class="cls-1" x="-220" width="396.51" height="200"/></clipPath><clipPath id="clip-path-5"><rect class="cls-1" x="-220" width="200" height="200"/></clipPath><clipPath id="clip-path-7"><rect class="cls-1" width="200" height="200"/></clipPath></defs><g class="cls-2"><g class="cls-3"><g id="_Grid_Repeat_" data-name="&lt;Grid Repeat&gt;"><line class="cls-4" x1="-203.5" y1="210" x2="16.5" y2="-10"/></g><g id="_Grid_Repeat_2" data-name="&lt;Grid Repeat&gt;"><line class="cls-5" x1="-183.5" y1="210" x2="36.5" y2="-10"/><line class="cls-4" x1="-163.5" y1="210" x2="56.5" y2="-10"/></g><g id="_Grid_Repeat_3" data-name="&lt;Grid Repeat&gt;"><line class="cls-5" x1="-143.5" y1="210" x2="76.5" y2="-10"/><line class="cls-4" x1="-123.5" y1="210" x2="96.5" y2="-10"/></g><g id="_Grid_Repeat_4" data-name="&lt;Grid Repeat&gt;"><line class="cls-5" x1="-103.5" y1="210" x2="116.5" y2="-10"/><line class="cls-4" x1="-83.5" y1="210" x2="136.5" y2="-10"/></g><g id="_Grid_Repeat_5" data-name="&lt;Grid Repeat&gt;"><line class="cls-5" x1="-63.5" y1="210" x2="156.5" y2="-10"/><line class="cls-4" x1="-43.5" y1="210" x2="176.5" y2="-10"/></g><g id="_Grid_Repeat_6" data-name="&lt;Grid Repeat&gt;"><line class="cls-5" x1="-23.5" y1="210" x2="196.5" y2="-10"/><line class="cls-4" x1="-3.5" y1="210" x2="216.5" y2="-10"/></g><g id="_Grid_Repeat_7" data-name="&lt;Grid Repeat&gt;"><line class="cls-5" x1="16.5" y1="210" x2="236.5" y2="-10"/><line class="cls-4" x1="36.5" y1="210" x2="256.5" y2="-10"/></g><g id="_Grid_Repeat_8" data-name="&lt;Grid Repeat&gt;"><line class="cls-5" x1="56.5" y1="210" x2="276.5" y2="-10"/><line class="cls-4" x1="76.5" y1="210" x2="296.5" y2="-10"/></g><g id="_Grid_Repeat_9" data-name="&lt;Grid Repeat&gt;"><line class="cls-5" x1="96.5" y1="210" x2="316.5" y2="-10"/><line class="cls-4" x1="116.5" y1="210" x2="336.5" y2="-10"/></g><g id="_Grid_Repeat_10" data-name="&lt;Grid Repeat&gt;"><line class="cls-5" x1="136.5" y1="210" x2="356.5" y2="-10"/><line class="cls-4" x1="156.5" y1="210" x2="376.5" y2="-10"/></g><g id="_Grid_Repeat_11" data-name="&lt;Grid Repeat&gt;"><line class="cls-5" x1="176.5" y1="210" x2="396.5" y2="-10"/><line class="cls-4" x1="196.5" y1="210" x2="416.5" y2="-10"/></g></g></g><g class="cls-6"><g class="cls-7"><g id="_Grid_Repeat_12" data-name="&lt;Grid Repeat&gt;"><line class="cls-8" x1="-208" y1="210" x2="12" y2="-10"/><line class="cls-9" x1="-188" y1="210" x2="32" y2="-10"/></g><g id="_Grid_Repeat_13" data-name="&lt;Grid Repeat&gt;"><line class="cls-8" x1="-172.5" y1="210" x2="47.5" y2="-10"/><line class="cls-9" x1="-152.5" y1="210" x2="67.5" y2="-10"/></g><g id="_Grid_Repeat_14" data-name="&lt;Grid Repeat&gt;"><line class="cls-8" x1="-137" y1="210" x2="83" y2="-10"/><line class="cls-9" x1="-117" y1="210" x2="103" y2="-10"/></g><g id="_Grid_Repeat_15" data-name="&lt;Grid Repeat&gt;"><line class="cls-8" x1="-101.5" y1="210" x2="118.5" y2="-10"/><line class="cls-9" x1="-81.5" y1="210" x2="138.5" y2="-10"/></g><g id="_Grid_Repeat_16" data-name="&lt;Grid Repeat&gt;"><line class="cls-8" x1="-66" y1="210" x2="154" y2="-10"/><line class="cls-9" x1="-46" y1="210" x2="174" y2="-10"/></g><g id="_Grid_Repeat_17" data-name="&lt;Grid Repeat&gt;"><line class="cls-8" x1="-30.5" y1="210" x2="189.5" y2="-10"/><line class="cls-9" x1="-10.5" y1="210" x2="209.5" y2="-10"/></g></g></g><g class="cls-10"><g class="cls-7"><g id="_Grid_Repeat_18" data-name="&lt;Grid Repeat&gt;"><line class="cls-11" x1="-223.5" y1="210" x2="-3.5" y2="-10"/></g><g id="_Grid_Repeat_19" data-name="&lt;Grid Repeat&gt;"><line class="cls-12" x1="-203.5" y1="210" x2="16.5" y2="-10"/><line class="cls-11" x1="-183.5" y1="210" x2="36.5" y2="-10"/></g><g id="_Grid_Repeat_20" data-name="&lt;Grid Repeat&gt;"><line class="cls-12" x1="-163.5" y1="210" x2="56.5" y2="-10"/><line class="cls-11" x1="-143.5" y1="210" x2="76.5" y2="-10"/></g><g id="_Grid_Repeat_21" data-name="&lt;Grid Repeat&gt;"><line class="cls-12" x1="-123.5" y1="210" x2="96.5" y2="-10"/><line class="cls-11" x1="-103.5" y1="210" x2="116.5" y2="-10"/></g><g id="_Grid_Repeat_22" data-name="&lt;Grid Repeat&gt;"><line class="cls-12" x1="-83.5" y1="210" x2="136.5" y2="-10"/><line class="cls-11" x1="-63.5" y1="210" x2="156.5" y2="-10"/></g><g id="_Grid_Repeat_23" data-name="&lt;Grid Repeat&gt;"><line class="cls-12" x1="-43.5" y1="210" x2="176.5" y2="-10"/><line class="cls-11" x1="-23.5" y1="210" x2="196.5" y2="-10"/></g></g></g><g class="cls-13"><g class="cls-3"><g id="_Grid_Repeat_24" data-name="&lt;Grid Repeat&gt;"><line class="cls-14" x1="-203.5" y1="210" x2="16.5" y2="-10"/></g><g id="_Grid_Repeat_25" data-name="&lt;Grid Repeat&gt;"><line class="cls-15" x1="-183.5" y1="210" x2="36.5" y2="-10"/><line class="cls-14" x1="-163.5" y1="210" x2="56.5" y2="-10"/></g><g id="_Grid_Repeat_26" data-name="&lt;Grid Repeat&gt;"><line class="cls-15" x1="-143.5" y1="210" x2="76.5" y2="-10"/><line class="cls-14" x1="-123.5" y1="210" x2="96.5" y2="-10"/></g><g id="_Grid_Repeat_27" data-name="&lt;Grid Repeat&gt;"><line class="cls-15" x1="-103.5" y1="210" x2="116.5" y2="-10"/><line class="cls-14" x1="-83.5" y1="210" x2="136.5" y2="-10"/></g><g id="_Grid_Repeat_28" data-name="&lt;Grid Repeat&gt;"><line class="cls-15" x1="-63.5" y1="210" x2="156.5" y2="-10"/><line class="cls-14" x1="-43.5" y1="210" x2="176.5" y2="-10"/></g><g id="_Grid_Repeat_29" data-name="&lt;Grid Repeat&gt;"><line class="cls-15" x1="-23.5" y1="210" x2="196.5" y2="-10"/><line class="cls-14" x1="-3.5" y1="210" x2="216.5" y2="-10"/></g><g id="_Grid_Repeat_30" data-name="&lt;Grid Repeat&gt;"><line class="cls-15" x1="16.5" y1="210" x2="236.5" y2="-10"/><line class="cls-14" x1="36.5" y1="210" x2="256.5" y2="-10"/></g><g id="_Grid_Repeat_31" data-name="&lt;Grid Repeat&gt;"><line class="cls-15" x1="56.5" y1="210" x2="276.5" y2="-10"/><line class="cls-14" x1="76.5" y1="210" x2="296.5" y2="-10"/></g><g id="_Grid_Repeat_32" data-name="&lt;Grid Repeat&gt;"><line class="cls-15" x1="96.5" y1="210" x2="316.5" y2="-10"/><line class="cls-14" x1="116.5" y1="210" x2="336.5" y2="-10"/></g><g id="_Grid_Repeat_33" data-name="&lt;Grid Repeat&gt;"><line class="cls-15" x1="136.5" y1="210" x2="356.5" y2="-10"/><line class="cls-14" x1="156.5" y1="210" x2="376.5" y2="-10"/></g><g id="_Grid_Repeat_34" data-name="&lt;Grid Repeat&gt;"><line class="cls-15" x1="176.5" y1="210" x2="396.5" y2="-10"/><line class="cls-14" x1="196.5" y1="210" x2="416.5" y2="-10"/></g></g></g></svg>