<svg xmlns="http://www.w3.org/2000/svg" viewBox="0 0 99.03 88.63"><defs><style>.cls-1{fill:#fff;stroke:#c91100;stroke-width:5.83px;}.cls-1,.cls-3{stroke-miterlimit:10;}.cls-2{opacity:0.3;}.cls-3{fill:none;stroke:#000;stroke-linecap:round;stroke-width:0.97px;stroke-dasharray:1.49 2.48;}</style></defs><g id="triangle"><path class="cls-1" d="M43.21,12.52,4.46,79.64A7.84,7.84,0,0,0,11.25,91.4h77.5a7.84,7.84,0,0,0,6.79-11.76L56.79,12.52A7.84,7.84,0,0,0,43.21,12.52Z" transform="translate(-0.48 -5.69)"/></g><g id="landscape"><path d="M35.42,66.56H47.5a2.41,2.41,0,0,0,2.4-2.42V42.42A2.41,2.41,0,0,0,47.5,40H35.42A2.42,2.42,0,0,0,33,42.42V64.15A2.41,2.41,0,0,0,35.42,66.56Zm0-24.43H47.5V64.44H35.42Z" transform="translate(-0.48 -5.69)"/></g><g id="outline-landscape"><g class="cls-2"><rect class="cls-3" x="50.2" y="61.8" width="26.56" height="17" rx="2.26"/></g></g><g id="arrow"><path d="M52.21,47.08A12,12,0,0,1,63.75,59H58.2l7.26,7.26L72.71,59H67.17a15.43,15.43,0,0,0-15-15.39" transform="translate(-0.48 -5.69)"/></g></svg>